<svg xmlns="http://www.w3.org/2000/svg" width="51.546" height="30.069" viewBox="0 0 51.546 30.069">
  <g id="levering" transform="translate(0 -7)">
    <path id="Path_117" data-name="Path 117" d="M9.369,20.148h-4.3a1.074,1.074,0,0,1,0-2.148h4.3a1.074,1.074,0,0,1,0,2.148Z" transform="translate(4.591 12.625)" fill="#446"/>
    <path id="Path_118" data-name="Path 118" d="M33.367,29.33H30.683a1.074,1.074,0,1,1,0-2.148h1.793l1.448-7.715a7.516,7.516,0,0,0-7.537-7.32H19.336L15.919,27.182h6.173a1.074,1.074,0,1,1,0,2.148H14.575a1.074,1.074,0,0,1-1.048-1.31l3.9-17.182A1.073,1.073,0,0,1,18.479,10h7.908a9.677,9.677,0,0,1,9.665,9.665l-1.63,8.789A1.071,1.071,0,0,1,33.367,29.33Z" transform="translate(15.494 3.443)" fill="#446"/>
    <path id="Path_119" data-name="Path 119" d="M22.369,26.739a5.369,5.369,0,1,1,5.369-5.369A5.376,5.376,0,0,1,22.369,26.739Zm0-8.591a3.222,3.222,0,1,0,3.222,3.222A3.226,3.226,0,0,0,22.369,18.148Z" transform="translate(19.512 10.33)" fill="#446"/>
    <path id="Path_120" data-name="Path 120" d="M11.369,26.739a5.369,5.369,0,1,1,5.369-5.369A5.376,5.376,0,0,1,11.369,26.739Zm0-8.591a3.222,3.222,0,1,0,3.222,3.222A3.226,3.226,0,0,0,11.369,18.148Z" transform="translate(6.887 10.33)" fill="#446"/>
    <path id="Path_121" data-name="Path 121" d="M11.665,11.148H3.074A1.074,1.074,0,0,1,3.074,9h8.591a1.074,1.074,0,0,1,0,2.148Z" transform="translate(2.296 2.296)" fill="#446"/>
    <path id="Path_122" data-name="Path 122" d="M12.813,14.148H2.074a1.074,1.074,0,1,1,0-2.148H12.813a1.074,1.074,0,1,1,0,2.148Z" transform="translate(1.148 5.739)" fill="#446"/>
    <path id="Path_123" data-name="Path 123" d="M13.96,17.148H1.074a1.074,1.074,0,0,1,0-2.148H13.96a1.074,1.074,0,0,1,0,2.148Z" transform="translate(0 9.182)" fill="#446"/>
    <path id="Path_124" data-name="Path 124" d="M25.478,32.773H17.96a1.074,1.074,0,1,1,0-2.148h6.66L29.5,9.148H5.074A1.074,1.074,0,1,1,5.074,7H30.847A1.074,1.074,0,0,1,31.9,8.31L26.526,31.936A1.075,1.075,0,0,1,25.478,32.773Z" transform="translate(4.591 0)" fill="#446"/>
  </g>
</svg>
