<?xml version="1.0" encoding="utf-8"?>
<!-- Generator: Adobe Illustrator 25.2.1, SVG Export Plug-In . SVG Version: 6.00 Build 0)  -->
<svg version="1.1" xmlns="http://www.w3.org/2000/svg" xmlns:xlink="http://www.w3.org/1999/xlink" x="0px" y="0px"
	 viewBox="0 0 3431.26 603.05" style="enable-background:new 0 0 3431.26 603.05;" xml:space="preserve">
<style type="text/css">
	.st0{fill:#131225;}
</style>
<g id="Lag_1">
	<rect x="4548.93" y="811.33" style="fill:none;" width="36.77" height="0"/>
	<rect x="4662.29" y="2597.55" style="fill:none;" width="18.38" height="0"/>
</g>
<g id="Lag_2">
	<g>
		<path class="st0" d="M334.26,21.72c-24.21-2.36-50.26-4.15-78.14-5.37c-29.69-1.29-59.93-2.07-90.72-2.34
			c-26.76-0.22-52.97-0.35-78.68-0.38c-0.79,0-1.52,0.21-2.18,0.54c-0.31-0.41-0.63-0.82-0.97-1.23C76.59,4.68,64.8-0.15,52,0
			l-0.99,0.02C45.67,0.14,40.68,0.57,36.16,1.3C20.24,3.88,8.97,15.04,9.36,27.83c0.16,5.16,0.45,9.29,0.88,12.25
			c1.3,9.67,6.5,235.67-6.13,281.82c-1.75,6.4-2.85,12.25-3.36,17.9c-1.88,20.83-1.78,57.74,20.06,70.95l0.71,0.43l-0.37,16.7
			l3.22,0.87c0.1,0.03,1.92,0.51,5.2,1.06l-1.02,147.44l0.15,0c-1.58,2.34-2.38,4.72-2.6,6.53L26,584.52l0.17,0.72
			c1.08,4.75,6.72,13.74,20.3,13.77c0.02,0,0.04,0,0.05,0c13.66,0,19.12-9.82,20.1-15.02l0.08-0.42l-0.05-3.33
			c0-0.38,0.08-38.36,0.02-76.07c-0.07-46.93-0.26-65.68-0.6-73.52c2.09-0.2,4.24-0.45,6.45-0.76l3.69-0.51l-0.06-18.1l0.09-0.03
			l0.66-0.52c1.07-0.85,23.2-18.96,22.25-57.88h209.19v-89.89H90.67C87.5,218.4,84.14,158.7,84.3,108.12l39.9-0.31h203.63
			c2.51,0,4.6-1.93,4.79-4.44l5.95-76.5C338.78,24.27,336.87,21.97,334.26,21.72z M18.65,38.89c-0.28-1.93-0.49-4.47-0.65-7.57
			c10.21-1.49,39.86-4.96,62.54,1c-0.57,3.27-1.08,6.77-1.54,10.48c-22.77-5.12-49.44-2.51-60.14-1.1
			C18.79,40.3,18.72,39.34,18.65,38.89z M20.78,170.05c9.93-1.02,37.77-3.29,56.27,0.97c0.12,3.3,0.26,6.59,0.39,9.87
			c-16.31-3.36-45.35-1.39-56.71-0.42C20.75,176.99,20.77,173.51,20.78,170.05z M20.79,161.49c0.04-47.23-0.84-91.06-1.56-111.24
			c9.74-1.3,36.9-4.11,58.85,1.07c-2.79,29.73-2.71,70.12-1.35,110.94C57.46,158.42,31.43,160.41,20.79,161.49z M37.52,9.7
			c4.13-0.67,8.73-1.06,13.68-1.18l0.9-0.02c10.14-0.12,19.69,3.67,24.96,9.92c1.09,1.3,2.24,2.99,3.01,5.02
			c-22.59-5.21-49.63-2.47-61.37-0.84C21.09,16.31,28.22,11.21,37.52,9.7z M50.16,431.43l0.92,138.1c-1.66-0.35-3.25-0.54-4.61-0.61
			l-0.14-0.01l-0.14,0c-3.59,0.06-6.6,0.69-9.1,1.69l0.97-139.72C41.53,431.19,45.59,431.41,50.16,431.43z M46.51,590.51
			c-0.01,0-0.02,0-0.04,0c-8.27-0.02-10.99-4.54-11.77-6.41c0.6-1.93,2.93-6.49,11.45-6.69c1.08,0.09,10.15,1,11.89,5.79
			C57.38,585.24,54.84,590.51,46.51,590.51z M34.39,421.93c-1.84-0.24-3.38-0.49-4.59-0.71l0.21-9.54
			c7.86,0.32,19.74,0.72,29.52,0.72c2.95,0,5.71-0.04,8.11-0.13l0.03,9.66C53.14,423.59,41.66,422.88,34.39,421.93z M86.96,323.45
			c0.34,3.81,0.92,7.84,1.8,12.63v16.79h1.85c0.83,31.41-14.73,47.38-18.32,50.62c-5.36,0.8-27.72,0.37-47.97-0.56
			C6.69,391.1,7.86,355.51,9.21,340.57c0.46-5.14,1.48-10.52,3.09-16.42c5.68-20.76,7.84-77.59,8.36-135.14
			c14.7-1.29,44.26-2.88,57.17,0.69C80.57,249.51,85.32,305.16,86.96,323.45z"/>
		<path class="st0" d="M568.12,191.05c-27.5,12.45-54.74,30.24-81.74,53.35l-11.48-62.5h-96.55v411.17h123.18V314.13
			c26.64-8.99,49.12-15.89,67.42-20.71c21.08-5.54,41.33-8.32,60.76-8.32h34.13l11.65-114.03h-21.64
			C626.09,171.07,597.52,177.73,568.12,191.05z"/>
		<path class="st0" d="M1046.69,192.29c-31.08-14.15-72.41-21.22-124.02-21.22c-51.06,0-92.26,7.07-123.6,21.22
			c-31.35,14.15-53.97,37.04-67.83,68.67c-13.88,31.63-20.81,74.08-20.81,127.35c0,52.16,6.93,94.05,20.81,125.68
			c13.86,31.63,36.48,54.39,67.83,68.25c31.34,13.86,72.54,20.81,123.6,20.81c51.6,0,92.93-6.95,124.02-20.81
			c31.07-13.86,53.4-36.62,67-68.25c13.59-31.63,20.39-73.52,20.39-125.68c0-53.27-6.8-95.72-20.39-127.35
			C1100.09,229.33,1077.76,206.44,1046.69,192.29z M998.42,465.71c-4.99,18.31-13.6,30.94-25.8,37.87
			c-12.21,6.94-28.86,10.4-49.94,10.4c-21.09,0-37.74-3.46-49.94-10.4c-12.21-6.93-20.81-19.56-25.8-37.87
			c-4.99-18.31-7.49-44.11-7.49-77.41c0-33.84,2.5-59.93,7.49-78.24c4.99-18.31,13.59-31.07,25.8-38.29
			c12.2-7.21,28.85-10.82,49.94-10.82c21.08,0,37.73,3.62,49.94,10.82c12.2,7.22,20.81,19.98,25.8,38.29
			c4.99,18.31,7.49,44.4,7.49,78.24C1005.91,421.6,1003.41,447.4,998.42,465.71z"/>
		<path class="st0" d="M1504.47,171.07c-30.52,0-61.59,7.07-93.22,21.22c-25.91,11.59-51.45,27.38-76.61,47.35
			c1.35-7.76,2.62-16.18,3.79-25.29c2.5-19.42,3.75-39.95,3.75-61.59l-0.83-142.33h-123.18v582.63h123.18V310.95
			c22.31-11.59,41.47-20.22,57.43-25.85c18.86-6.66,37.17-9.99,54.93-9.99c16.09,0,27.32,3.47,33.71,10.4
			c6.37,6.94,9.57,19.56,9.57,37.87v269.67h124.02V285.1C1620.99,209.08,1582.15,171.07,1504.47,171.07z"/>
		<path class="st0" d="M2037.99,192.29c-31.08-14.15-72.41-21.22-124.02-21.22c-51.06,0-92.26,7.07-123.6,21.22
			c-31.35,14.15-53.97,37.04-67.83,68.67c-13.88,31.63-20.81,74.08-20.81,127.35c0,52.16,6.93,94.05,20.81,125.68
			c13.86,31.63,36.48,54.39,67.83,68.25c31.34,13.86,72.54,20.81,123.6,20.81c51.6,0,92.93-6.95,124.02-20.81
			c31.07-13.86,53.4-36.62,67-68.25c13.59-31.63,20.39-73.52,20.39-125.68c0-53.27-6.8-95.72-20.39-127.35
			C2091.38,229.33,2069.06,206.44,2037.99,192.29z M1989.71,465.71c-4.99,18.31-13.6,30.94-25.8,37.87
			c-12.21,6.94-28.86,10.4-49.94,10.4c-21.09,0-37.74-3.46-49.94-10.4c-12.21-6.93-20.81-19.56-25.8-37.87
			c-4.99-18.31-7.49-44.11-7.49-77.41c0-33.84,2.5-59.93,7.49-78.24c4.99-18.31,13.59-31.07,25.8-38.29
			c12.2-7.21,28.85-10.82,49.94-10.82c21.08,0,37.73,3.62,49.94,10.82c12.2,7.22,20.81,19.98,25.8,38.29
			c4.99,18.31,7.49,44.4,7.49,78.24C1997.2,421.6,1994.7,447.4,1989.71,465.71z"/>
		<path class="st0" d="M2381.73,503.17c-16.1,0-28.3-3.46-36.62-10.4c-8.32-6.93-12.48-17.34-12.48-31.21l0.83-451.12h-123.18
			v481.92c0,34.96,10.82,62.15,32.46,81.57c21.64,19.42,51.04,29.13,88.23,29.13c8.87,0,19.69-0.7,32.46-2.08
			c12.76-1.39,25.24-3.33,37.45-5.83c12.2-2.5,21.64-5.41,28.3-8.74l-14.15-83.23H2381.73z"/>
		<path class="st0" d="M2755.44,121.96c0,18.31,0.42,36.21,1.25,53.68c0.53,11.17,1.25,22.27,2.12,33.32
			c-15.78-11.08-33.13-19.56-52.06-25.42c-26.92-8.32-54.8-12.48-83.65-12.48c-34.41,0-63.26,6.39-86.56,19.14
			c-23.31,12.77-40.65,34.54-52.02,65.34c-11.38,30.8-17.06,73.66-17.06,128.59c0,70.47,11.24,124.58,33.71,162.3
			c22.47,37.74,60.06,56.6,112.78,56.6c38.83,0,71.58-7.91,98.21-23.72c23.35-13.87,42.86-30.61,58.54-50.24l10.54,63.97h97.38
			V10.43h-123.18V121.96z M2700.5,497.76c-10.55,3.06-23.03,4.58-37.45,4.58c-16.1,0-29.27-3.19-39.54-9.57
			c-10.27-6.37-17.76-18.03-22.47-34.96c-4.72-16.92-7.07-41.75-7.07-74.49c0-34.96,2.5-61.31,7.49-79.07
			c4.99-17.75,12.76-29.68,23.31-35.79c10.53-6.1,24.41-9.16,41.62-9.16c19.98,0,37.45,2.22,52.44,6.66
			c11.13,3.31,23.34,6.91,36.62,10.82v191.78c-8.4,5.71-16.18,10.74-23.31,15.05C2721.58,489.99,2711.04,494.71,2700.5,497.76z"/>
		<path class="st0" d="M3139.96,67.86h-124.02l0.23,114.45l-71.81,3.74v76.57h71.96l0.45,226.39c0,36.08,10.4,64.09,31.21,84.06
			s49.8,29.96,86.98,29.96c9.99,0,22.19-0.7,36.62-2.08c14.42-1.39,28.85-3.33,43.28-5.83c14.42-2.5,26.63-5.41,36.62-8.74
			l-13.32-83.23h-53.27c-16.1,0-27.61-3.19-34.54-9.57c-6.94-6.37-10.4-17.06-10.4-32.04V262.63h114.86v-80.74h-114.86V67.86z"/>
		<path class="st0" d="M3421.69,476.12c-6.39-6.37-17.62-9.57-33.71-9.57h-31.63c-16.1,0-27.34,3.2-33.71,9.57
			c-6.39,6.39-9.57,17.62-9.57,33.71v39.95c0,16.1,3.19,27.34,9.57,33.71c6.37,6.38,17.61,9.57,33.71,9.57h31.63
			c16.09,0,27.32-3.19,33.71-9.57c6.37-6.37,9.57-17.61,9.57-33.71v-39.95C3431.26,493.74,3428.06,482.5,3421.69,476.12z"/>
	</g>
</g>
</svg>
