<svg id="sikkerbetaling" xmlns="http://www.w3.org/2000/svg" width="34.708" height="41.136" viewBox="0 0 34.708 41.136">
  <path id="Path_112" data-name="Path 112" d="M73.717,6.661,57.97.123a1.607,1.607,0,0,0-1.232,0L40.991,6.661A1.607,1.607,0,0,0,40,8.145v7.948A26.91,26.91,0,0,0,56.747,41.017a1.607,1.607,0,0,0,1.214,0A26.91,26.91,0,0,0,74.708,16.093V8.145A1.607,1.607,0,0,0,73.717,6.661Zm-2.223,9.432a23.7,23.7,0,0,1-14.14,21.691,23.7,23.7,0,0,1-14.14-21.691V9.218l14.14-5.871,14.14,5.871ZM55.578,21.509,62.485,14.6a1.607,1.607,0,1,1,2.272,2.272l-8.043,8.043a1.607,1.607,0,0,1-2.272,0l-4.491-4.491a1.607,1.607,0,1,1,2.272-2.272Z" transform="translate(-40 0)" fill="#446"/>
</svg>
