<svg id="tilfreds" xmlns="http://www.w3.org/2000/svg" width="42.593" height="42.593" viewBox="0 0 42.593 42.593">
  <path id="Path_113" data-name="Path 113" d="M51.3,72.593a21.3,21.3,0,1,1,15.407-36,1.42,1.42,0,0,1-2.055,1.96A18.291,18.291,0,0,0,51.3,32.84a18.449,18.449,0,1,0,15.972,9.2,1.42,1.42,0,1,1,2.454-1.428A21.3,21.3,0,0,1,51.3,72.593Z" transform="translate(-30 -30)" fill="#446"/>
  <path id="Path_114" data-name="Path 114" d="M79.643,177.358a14.215,14.215,0,0,1-13.373-9.464A1.42,1.42,0,0,1,67.608,166H91.678a1.42,1.42,0,0,1,1.338,1.894A14.215,14.215,0,0,1,79.643,177.358ZM69.82,168.84a11.335,11.335,0,0,0,19.647,0Z" transform="translate(-59.767 -141.864)" fill="#446"/>
  <path id="Path_115" data-name="Path 115" d="M85.1,115.679a1.419,1.419,0,0,1-1.42-1.42,1.42,1.42,0,0,0-2.84,0,1.42,1.42,0,1,1-2.84,0,4.259,4.259,0,1,1,8.519,0A1.419,1.419,0,0,1,85.1,115.679Z" transform="translate(-69.481 -95.802)" fill="#446"/>
  <path id="Path_116" data-name="Path 116" d="M157.1,115.679a1.419,1.419,0,0,1-1.42-1.42,1.42,1.42,0,1,0-2.84,0,1.42,1.42,0,1,1-2.84,0,4.259,4.259,0,1,1,8.519,0A1.419,1.419,0,0,1,157.1,115.679Z" transform="translate(-128.704 -95.802)" fill="#446"/>
</svg>
